<?xml version="1.0" encoding="ISO-8859-1" standalone="no"?>
<!DOCTYPE svg PUBLIC "-//W3C//DTD SVG 20010904//EN"
    "http://www.w3.org/TR/2001/REC-SVG-20010904/DTD/svg10.dtd">
<svg width="800" height="600" xmlns="http://www.w3.org/2000/svg" version="1.1"> <path d=" M70,53 L120,53 Q128,54.25,130,63 M130,63 L130,91 Q128,99,120,101 M120,101 L70,101 Q62,99,60,91 M60,91 L60,63 Q62,53,70,53"  style="stroke:#000000;fill:#ffffff;stroke-width:2;stroke-linecap:butt;stroke-linejoin:miter;"  /><text y="71"  transform="rotate(0 95 ,77)"  font-family="Arial"  font-size="12"  fill=" #000000"  text-anchor="middle" ><tspan x="95" dy="12">Text</tspan></text><polygon points="231,221 301,221 301,266 231,266 "  style="stroke:#000000;fill:#008080;stroke-width:2;stroke-linecap:butt;stroke-linejoin:miter;"  /><text y="235"  transform="rotate(0 266 ,241)"  font-family="Arial"  font-size="12"  fill=" #000000"  text-anchor="middle" ><tspan x="266" dy="12">Text</tspan></text><polygon points="478.54193884694075,33.98143100943736 664.289384380923,153.39275148419912 564.2773851451208,308.96404327577955 378.5299396111375,189.5527228010164 "  style="stroke:#000000;fill:#99cc00;stroke-width:2;stroke-linecap:butt;stroke-linejoin:miter;"  /><text y="156.47271"  transform="rotate(32.73568036024187 521.40966 ,171.47271)"  font-family="Arial"  font-size="30"  fill=" #ffffff"  text-anchor="middle" ><tspan x="521.40966" dy="30">Text</tspan></text><polyline points="95,101 266,221 " style="stroke:#000000;fill:none;stroke-width:1;stroke-linecap:butt;stroke-linejoin:miter;" /><polygon points="266,221 259.67482976657,207.39881543695068 251.05844353012353,219.6771658238869 "  style="stroke:#000000;fill:#000000;stroke-width:1;stroke-linecap:butt;stroke-linejoin:miter;"  /><text y="156"  transform="rotate(0 180.5 ,161)"  font-family="Arial"  font-size="10"  text-anchor="middle" ><tspan x="180.5" dy="10"></tspan></text><polyline points="301,243.5 428.53594,111.76708 " style="stroke:#000000;fill:none;stroke-width:1;stroke-linecap:butt;stroke-linejoin:miter;" /><polygon points="428.53594,111.76708 414.1117878358098,115.88336890437597 424.8886746784105,126.31690665442895 "  style="stroke:#000000;fill:#000000;stroke-width:1;stroke-linecap:butt;stroke-linejoin:miter;"  /><text y="172.63354"  transform="rotate(0 364.76797 ,177.63354)"  font-family="Arial"  font-size="10"  text-anchor="middle" ><tspan x="364.76797" dy="10"></tspan></text></svg>