<?xml version="1.0" encoding="utf-8"?>
<!-- Generator: Adobe Illustrator 15.1.0, SVG Export Plug-In . SVG Version: 6.00 Build 0)  -->
<!DOCTYPE svg PUBLIC "-//W3C//DTD SVG 1.1//EN" "http://www.w3.org/Graphics/SVG/1.1/DTD/svg11.dtd">
<svg version="1.1"
	 id="svg2327" inkscape:version="0.46" sodipodi:docname="video-display.svg" xmlns:dc="http://purl.org/dc/elements/1.1/" xmlns:cc="http://creativecommons.org/ns#" xmlns:rdf="http://www.w3.org/1999/02/22-rdf-syntax-ns#" xmlns:svg="http://www.w3.org/2000/svg" xmlns:sodipodi="http://sodipodi.sourceforge.net/DTD/sodipodi-0.dtd" xmlns:inkscape="http://www.inkscape.org/namespaces/inkscape" sodipodi:version="0.32" sodipodi:docbase="/home/tigert/cvs/freedesktop.org/tango-icon-theme/scalable/devices" inkscape:output_extension="org.inkscape.output.svg.inkscape"
	 xmlns="http://www.w3.org/2000/svg" xmlns:xlink="http://www.w3.org/1999/xlink" x="0px" y="0px" width="341.081px"
	 height="325.5px" viewBox="-293.081 -277.5 341.081 325.5" enable-background="new -293.081 -277.5 341.081 325.5"
	 xml:space="preserve">
<defs>
	
	
		<inkscape:perspective  id="perspective71" inkscape:persp3d-origin="24 : 16 : 1" sodipodi:type="inkscape:persp3d" inkscape:vp_y="0 : 1000 : 0" inkscape:vp_x="0 : 24 : 1" inkscape:vp_z="48 : 24 : 1">
		</inkscape:perspective>
</defs>
<sodipodi:namedview  id="base" inkscape:window-y="92" inkscape:window-x="211" inkscape:window-height="756" inkscape:window-width="854" inkscape:current-layer="layer1" inkscape:document-units="px" inkscape:pageshadow="2" inkscape:pageopacity="0.0" inkscape:cy="27.608256" inkscape:cx="35.613813" inkscape:zoom="5.6568542" borderopacity="0.12156863" bordercolor="#666666" showgrid="false" pagecolor="#ffffff" inkscape:showpageshadow="false" inkscape:grid-bbox="true">
	</sodipodi:namedview>
<g id="layer1" inkscape:groupmode="layer" inkscape:label="Layer 1">
	
		<radialGradient id="path2452_1_" cx="-206.2822" cy="17.1763" r="58.9771" gradientTransform="matrix(2.0226 0 0 -0.9699 295.458 -16.403)" gradientUnits="userSpaceOnUse">
		<stop  offset="0" style="stop-color:#000000"/>
		<stop  offset="1" style="stop-color:#000000;stop-opacity:0"/>
	</radialGradient>
	
		<path id="path2452" sodipodi:cx="24.218407" sodipodi:cy="35.051105" sodipodi:rx="16.882174" sodipodi:ry="4.5520000" sodipodi:type="arc" opacity="0.5086" fill="url(#path2452_1_)" enable-background="new    " d="
		M-2.504-33.063c0.02,31.59-53.357,57.2-119.225,57.214c-65.865,0.013-119.278-25.592-119.301-57.174c0-0.013,0-0.026,0-0.04
		c-0.023-31.582,53.354-57.199,119.222-57.213C-55.939-90.283-2.529-64.685-2.504-33.103C-2.504-33.089-2.504-33.076-2.504-33.063z"
		/>
	
		<path id="path2407" sodipodi:cx="-35.658386" sodipodi:cy="29.716238" sodipodi:rx="9.3944187" sodipodi:ry="3.9395950" sodipodi:type="arc" fill="#ADB0AA" stroke="#4B4D4A" d="
		M-59.35-30.173c0,14.635-28.291,26.498-63.19,26.498c-34.9,0-63.191-11.863-63.191-26.498l0,0
		c0-14.635,28.291-26.498,63.191-26.498C-87.641-56.671-59.35-44.808-59.35-30.173z"/>
	
		<path id="path1825" sodipodi:cx="-35.658386" sodipodi:cy="29.716238" sodipodi:rx="9.3944187" sodipodi:ry="3.9395950" sodipodi:type="arc" fill="none" stroke="#4B4D4A" stroke-width="1.1571" d="
		M-65.523-32.406c0,12.112-25.526,21.927-57.017,21.927c-31.491,0-57.02-9.814-57.02-21.927l0,0
		c0-12.112,25.529-21.933,57.02-21.933C-91.05-54.339-65.523-44.519-65.523-32.406z"/>
	
		<path id="path2983" sodipodi:cx="-35.658386" sodipodi:cy="29.716238" sodipodi:rx="9.3944187" sodipodi:ry="3.9395950" sodipodi:type="arc" fill="none" stroke="#4B4D4A" stroke-width="1.1833" d="
		M-70.037-39.935c0,12.48-23.693,22.598-52.924,22.598s-52.924-10.117-52.924-22.598l0,0c0-12.48,23.693-22.596,52.924-22.596
		S-70.037-52.415-70.037-39.935z"/>
	
		<linearGradient id="rect2699_1_" gradientUnits="userSpaceOnUse" x1="-199.1328" y1="153.2441" x2="-199.6641" y2="76.854" gradientTransform="matrix(1.8163 0 0 -1.2789 240.3327 101.4239)">
		<stop  offset="0" style="stop-color:#585956"/>
		<stop  offset="1" style="stop-color:#BBBEB8"/>
	</linearGradient>
	<rect id="rect2699" x="-152.155" y="-75.353" fill="url(#rect2699_1_)" width="60.804" height="42.814"/>
	
		<linearGradient id="rect2404_1_" gradientUnits="userSpaceOnUse" x1="-229.8911" y1="226.0791" x2="-53.8503" y2="50.4581" gradientTransform="matrix(1.1299 0 0 -0.8851 48.1329 -22.9019)">
		<stop  offset="0" style="stop-color:#DDE1D9"/>
		<stop  offset="1" style="stop-color:#CACDC6"/>
	</linearGradient>
	<path id="rect2404" sodipodi:nodetypes="cssssssss" fill="url(#rect2404_1_)" stroke="#4B4D4A" d="M-235.502-253.65H-9.578
		c6.129,0,10.924,3.925,11.213,9.426l8.959,172.051c0.395,7.514-6.063,13.584-13.59,13.584h-239.088
		c-7.528,0-13.981-6.07-13.591-13.584l8.96-172.051C-246.442-249.426-243.033-253.65-235.502-253.65z"/>
	
		<linearGradient id="path2377_1_" gradientUnits="userSpaceOnUse" x1="-154.0972" y1="71.7002" x2="-173.1648" y2="231.4992" gradientTransform="matrix(1.1741 0 0 -0.9454 62.3224 3.0109)">
		<stop  offset="0" style="stop-color:#5B5B97"/>
		<stop  offset="1" style="stop-color:#1B1B43"/>
	</linearGradient>
	
		<path id="path2377" sodipodi:nodetypes="ccccc" fill="url(#path2377_1_)" stroke="#000079" stroke-width="0.5" stroke-linejoin="round" d="
		M-226.559-236.095l-8.355,148.289h212.889l-8.973-147.658L-226.559-236.095z"/>
	
		<path id="path2393" sodipodi:nodetypes="cc" fill="none" stroke="#000000" stroke-width="0.9962" stroke-linecap="round" stroke-opacity="0.2484" d="
		M-241.582-71.766H-3.279"/>
	<path id="path2397" sodipodi:nodetypes="cssssssss" fill="none" stroke="#000000" stroke-opacity="0.7006" d="M-236.622-246.852
		l227.655-0.256c1.91-0.003,3.764,1.596,3.914,4.391L4.111-75.878C4.498-68.771,0.479-63.87-6.643-63.87h-232.219
		c-7.121,0-10.714-4.9-10.33-12.008l8.907-164.759C-240.025-245.456-239.167-246.848-236.622-246.852z"/>
	
		<linearGradient id="path2443_1_" gradientUnits="userSpaceOnUse" x1="-195.2104" y1="273.3359" x2="-156.8224" y2="104.6715" gradientTransform="matrix(1.239 0 0 -0.896 80.9511 -18.4142)">
		<stop  offset="0" style="stop-color:#FFFFFF"/>
		<stop  offset="1" style="stop-color:#FCFCFF;stop-opacity:0"/>
	</linearGradient>
	<path id="path2443" sodipodi:nodetypes="ccccc" opacity="0.5314" fill="url(#path2443_1_)" enable-background="new    " d="
		M-224.536-233.133l-5.396,120.208c74.289-16.152,103.73-70.578,196.096-88.435l-1.084-31.326L-224.536-233.133z"/>
	
		<linearGradient id="path2709_1_" gradientUnits="userSpaceOnUse" x1="-86.0635" y1="174.5488" x2="-77.8577" y2="175.1766" gradientTransform="matrix(1.3312 0 0 -0.6584 95.4217 -113.3326)">
		<stop  offset="0" style="stop-color:#909090"/>
		<stop  offset="1" style="stop-color:#BEBEBE;stop-opacity:0"/>
	</linearGradient>
	
		<path id="path2709" sodipodi:cx="34.780815" sodipodi:cy="3.9384086" sodipodi:rx="0.83968931" sodipodi:ry="0.83968931" sodipodi:type="arc" fill="url(#path2709_1_)" d="
		M-7.352-228.416c0.014,2.052-3.35,3.721-7.502,3.724c-4.15,0.007-7.527-1.655-7.54-3.708c0-0.006,0-0.013,0-0.016
		c0-2.056,3.351-3.725,7.508-3.728c4.151-0.003,7.521,1.659,7.534,3.711C-7.352-228.43-7.352-228.423-7.352-228.416z"/>
	
		<linearGradient id="path2719_1_" gradientUnits="userSpaceOnUse" x1="-85.5737" y1="156.2324" x2="-77.3715" y2="156.8599" gradientTransform="matrix(1.3312 0 0 -0.6584 95.535 -111.2271)">
		<stop  offset="0" style="stop-color:#909090"/>
		<stop  offset="1" style="stop-color:#BEBEBE;stop-opacity:0"/>
	</linearGradient>
	
		<path id="path2719" sodipodi:cx="34.780815" sodipodi:cy="3.9384086" sodipodi:rx="0.83968931" sodipodi:ry="0.83968931" sodipodi:type="arc" fill="url(#path2719_1_)" d="
		M-6.59-214.254c0.014,2.056-3.35,3.724-7.501,3.728s-7.528-1.655-7.534-3.711c0-0.003,0-0.01,0-0.016
		c-0.007-2.053,3.35-3.722,7.502-3.725c4.157-0.007,7.527,1.655,7.533,3.708C-6.59-214.264-6.59-214.257-6.59-214.254z"/>
	
		<linearGradient id="path2723_1_" gradientUnits="userSpaceOnUse" x1="-85.0825" y1="138.8379" x2="-76.8825" y2="139.4652" gradientTransform="matrix(1.3312 0 0 -0.6584 95.6493 -109.2271)">
		<stop  offset="0" style="stop-color:#909090"/>
		<stop  offset="1" style="stop-color:#BEBEBE;stop-opacity:0"/>
	</linearGradient>
	
		<path id="path2723" sodipodi:cx="34.780815" sodipodi:cy="3.9384086" sodipodi:rx="0.83968931" sodipodi:ry="0.83968931" sodipodi:type="arc" fill="url(#path2723_1_)" d="
		M-5.828-200.801c0.014,2.056-3.35,3.724-7.501,3.728s-7.527-1.655-7.527-3.711c0-0.003,0-0.01,0-0.016
		c-0.013-2.053,3.35-3.721,7.501-3.725c4.152-0.006,7.527,1.655,7.527,3.708C-5.828-200.812-5.828-200.805-5.828-200.801z"/>
	
		<linearGradient id="path2727_1_" gradientUnits="userSpaceOnUse" x1="-84.5938" y1="121.4424" x2="-76.3916" y2="122.0699" gradientTransform="matrix(1.3312 0 0 -0.6584 95.7625 -107.2271)">
		<stop  offset="0" style="stop-color:#909090"/>
		<stop  offset="1" style="stop-color:#BEBEBE;stop-opacity:0"/>
	</linearGradient>
	
		<path id="path2727" sodipodi:cx="34.780815" sodipodi:cy="3.9384086" sodipodi:rx="0.83968931" sodipodi:ry="0.83968931" sodipodi:type="arc" fill="url(#path2727_1_)" d="
		M-5.059-187.349c0.006,2.056-3.35,3.724-7.502,3.728c-4.158,0.003-7.527-1.655-7.534-3.711c0-0.003,0-0.01,0-0.016
		c-0.013-2.053,3.351-3.721,7.501-3.725c4.152-0.006,7.527,1.655,7.535,3.708C-5.059-187.358-5.059-187.352-5.059-187.349z"/>
	
		<linearGradient id="path2731_1_" gradientUnits="userSpaceOnUse" x1="-84.1055" y1="104.0479" x2="-75.9004" y2="104.6756" gradientTransform="matrix(1.3312 0 0 -0.6584 95.8768 -105.2271)">
		<stop  offset="0" style="stop-color:#909090"/>
		<stop  offset="1" style="stop-color:#BEBEBE;stop-opacity:0"/>
	</linearGradient>
	
		<path id="path2731" sodipodi:cx="34.780815" sodipodi:cy="3.9384086" sodipodi:rx="0.83968931" sodipodi:ry="0.83968931" sodipodi:type="arc" fill="url(#path2731_1_)" d="
		M-4.291-173.896c0,2.056-3.35,3.725-7.508,3.728c-4.15,0.003-7.521-1.655-7.533-3.711c0-0.003,0-0.01,0-0.016
		c-0.014-2.053,3.35-3.721,7.501-3.725c4.151-0.006,7.528,1.655,7.54,3.708C-4.291-173.906-4.291-173.899-4.291-173.896z"/>
	<path id="text2735" fill="#4A4A4A" d="M-135.152-81.304h1.895c0.565,0,0.995,0.118,1.297,0.368c0.302,0.249,0.453,0.61,0.453,1.07
		c0,0.467-0.151,0.821-0.453,1.071c-0.302,0.249-0.732,0.381-1.297,0.381h-0.752v1.537h-1.143V-81.304 M-134.009-80.482v1.241h0.631
		c0.22,0,0.391-0.053,0.512-0.164s0.181-0.263,0.181-0.46c0-0.196-0.059-0.349-0.181-0.453s-0.292-0.164-0.512-0.164H-134.009
		 M-128.682-80.562c-0.348,0-0.617,0.125-0.808,0.388c-0.194,0.257-0.289,0.618-0.289,1.084s0.095,0.821,0.289,1.083
		c0.19,0.257,0.459,0.382,0.808,0.382c0.352,0,0.621-0.125,0.815-0.382c0.19-0.262,0.286-0.617,0.286-1.083
		s-0.095-0.827-0.286-1.084C-128.061-80.437-128.331-80.562-128.682-80.562 M-128.682-81.39c0.713,0,1.271,0.204,1.672,0.611
		c0.404,0.407,0.608,0.973,0.608,1.688s-0.204,1.28-0.608,1.688c-0.4,0.406-0.959,0.604-1.672,0.604
		c-0.709,0-1.268-0.197-1.671-0.604c-0.404-0.408-0.604-0.973-0.604-1.688s0.2-1.281,0.604-1.688
		C-129.95-81.186-129.391-81.39-128.682-81.39 M-125.545-81.304h1.277l1.609,3.035v-3.035h1.077v4.428h-1.271l-1.609-3.041v3.041
		h-1.084V-81.304 M-121.082-81.304h1.248l1.006,1.576l1.004-1.576h1.255l-1.688,2.563v1.865h-1.143v-1.865L-121.082-81.304"/>
</g>
</svg>
